<svg width="40" height="40" viewBox="0 0 40 40" fill="none" xmlns="http://www.w3.org/2000/svg">
<rect width="40" height="40" rx="2" fill="white"/>
<path d="M15.8295 22.5003C13.9489 22.6213 12.2422 23.3375 11.2738 25.8894C11.1636 26.1805 10.8988 26.3572 10.5898 26.3572C10.0691 26.3572 8.45891 25.0602 8 24.747C8.00047 28.6072 9.77844 32 14.0005 32C17.5564 32 20.0005 29.9483 20.0005 26.3661C20.0005 26.2203 19.97 26.0811 19.955 25.9381L15.8295 22.5003ZM29.4641 8C28.7534 8 28.0873 8.31453 27.5792 8.77109C17.9975 17.3305 17.0005 17.5316 17.0005 20.0511C17.0005 20.6933 17.1528 21.3055 17.4097 21.8652L20.4012 24.358C20.7392 24.4423 21.0875 24.5 21.4508 24.5C24.3622 24.5 26.0497 22.3686 31.3489 12.4784C31.6948 11.8058 32.0005 11.0792 32.0005 10.3227C32.0005 8.9675 30.7817 8 29.4641 8Z" fill="black"/>
</svg>
