<svg width="25" height="20" viewBox="0 0 25 20" fill="none" xmlns="http://www.w3.org/2000/svg">
<path d="M21.25 0H3.75C2.75544 0 1.80161 0.395088 1.09835 1.09835C0.395088 1.80161 0 2.75544 0 3.75V16.25C0 17.2446 0.395088 18.1984 1.09835 18.9017C1.80161 19.6049 2.75544 20 3.75 20H21.25C22.2446 20 23.1984 19.6049 23.9017 18.9017C24.6049 18.1984 25 17.2446 25 16.25V3.75C25 2.75544 24.6049 1.80161 23.9017 1.09835C23.1984 0.395088 22.2446 0 21.25 0V0ZM20.7375 2.5L13.3875 9.85C13.2713 9.96716 13.133 10.0602 12.9807 10.1236C12.8284 10.1871 12.665 10.2197 12.5 10.2197C12.335 10.2197 12.1716 10.1871 12.0193 10.1236C11.867 10.0602 11.7287 9.96716 11.6125 9.85L4.2625 2.5H20.7375ZM22.5 16.25C22.5 16.5815 22.3683 16.8995 22.1339 17.1339C21.8995 17.3683 21.5815 17.5 21.25 17.5H3.75C3.41848 17.5 3.10054 17.3683 2.86612 17.1339C2.6317 16.8995 2.5 16.5815 2.5 16.25V4.2625L9.85 11.6125C10.5531 12.3148 11.5062 12.7092 12.5 12.7092C13.4938 12.7092 14.4469 12.3148 15.15 11.6125L22.5 4.2625V16.25Z" fill="white"/>
</svg>
