<svg width="37" height="37" viewBox="0 0 37 37" fill="none" xmlns="http://www.w3.org/2000/svg">
<path d="M12.3756 29.7923C12.3756 29.9454 12.204 30.0678 11.9877 30.0678C11.7415 30.0907 11.57 29.9683 11.57 29.7923C11.57 29.6393 11.7415 29.5169 11.9579 29.5169C12.1817 29.494 12.3756 29.6164 12.3756 29.7923ZM10.0556 29.4481C10.0034 29.6011 10.1526 29.777 10.3764 29.8229C10.5704 29.8995 10.7942 29.8229 10.8389 29.6699C10.8837 29.5169 10.7419 29.3409 10.5181 29.2721C10.3242 29.2185 10.1079 29.295 10.0556 29.4481ZM13.3528 29.318C13.1365 29.3716 12.9873 29.5169 13.0097 29.6929C13.0321 29.8459 13.226 29.9454 13.4498 29.8918C13.6661 29.8383 13.8153 29.6929 13.7929 29.5399C13.7706 29.3945 13.5692 29.295 13.3528 29.318ZM18.2613 0C7.91472 0 0 8.05633 0 18.668C0 27.1528 5.20686 34.4135 12.6442 36.9688C13.599 37.1448 13.9347 36.5404 13.9347 36.0431C13.9347 35.5687 13.9123 32.9521 13.9123 31.3455C13.9123 31.3455 8.69053 32.4931 7.59395 29.0655C7.59395 29.0655 6.74355 26.8391 5.52016 26.2653C5.52016 26.2653 3.8119 25.0641 5.63952 25.0871C5.63952 25.0871 7.49698 25.2401 8.51895 27.061C10.1526 30.0142 12.8903 29.165 13.9571 28.66C14.1286 27.4359 14.6135 26.5866 15.1506 26.0817C10.9806 25.6073 6.77339 24.9876 6.77339 17.6275C6.77339 15.5235 7.34032 14.4677 8.53387 13.1212C8.33992 12.6239 7.70585 10.5735 8.72782 7.92626C10.2869 7.42896 13.875 9.99199 13.875 9.99199C15.3669 9.56354 16.9708 9.34167 18.5597 9.34167C20.1486 9.34167 21.7524 9.56354 23.2444 9.99199C23.2444 9.99199 26.8325 7.42131 28.3915 7.92626C29.4135 10.5811 28.7794 12.6239 28.5855 13.1212C29.779 14.4754 30.5101 15.5312 30.5101 17.6275C30.5101 25.0106 26.1163 25.5997 21.9464 26.0817C22.6327 26.6861 23.2145 27.8337 23.2145 29.6317C23.2145 32.21 23.1921 35.4004 23.1921 36.0278C23.1921 36.5251 23.5353 37.1295 24.4827 36.9535C31.9423 34.4134 37 27.1528 37 18.668C37 8.05633 28.6079 0 18.2613 0ZM7.25081 26.3877C7.15383 26.4642 7.17621 26.6402 7.30302 26.7856C7.42238 26.908 7.59395 26.9615 7.69093 26.8621C7.7879 26.7856 7.76552 26.6096 7.63871 26.4642C7.51936 26.3418 7.34778 26.2883 7.25081 26.3877ZM6.44516 25.768C6.39294 25.8675 6.46754 25.9899 6.61673 26.0664C6.73609 26.1429 6.88528 26.1199 6.9375 26.0128C6.98972 25.9134 6.91512 25.791 6.76593 25.7145C6.61673 25.6685 6.49738 25.6915 6.44516 25.768ZM8.8621 28.4917C8.74274 28.5912 8.7875 28.8207 8.95907 28.9661C9.13065 29.142 9.34698 29.165 9.44395 29.0426C9.54093 28.9431 9.49617 28.7136 9.34698 28.5682C9.18286 28.3922 8.95907 28.3693 8.8621 28.4917ZM8.01169 27.367C7.89234 27.4435 7.89234 27.6425 8.01169 27.8184C8.13105 27.9944 8.33246 28.0709 8.42944 27.9944C8.54879 27.8949 8.54879 27.696 8.42944 27.5201C8.325 27.3441 8.13105 27.2676 8.01169 27.367Z" fill="white"/>
</svg>
