<svg width="25" height="38" viewBox="0 0 25 38" fill="none" xmlns="http://www.w3.org/2000/svg">
<path d="M18.7509 12.4982C20.4083 12.4982 21.9978 11.8398 23.1697 10.6679C24.3416 9.49592 25 7.90644 25 6.24908C25 4.59172 24.3416 3.00224 23.1697 1.83031C21.9978 0.658384 20.4083 0 18.7509 0L6.25275 0C4.59636 0 3.00781 0.657998 1.83657 1.82924C0.665321 3.00049 0.00732341 4.58903 0.00732341 6.24542C0.00732341 7.90181 0.665321 9.49036 1.83657 10.6616C3.00781 11.8328 4.59636 12.4908 6.25275 12.4908C4.59539 12.4908 3.00591 13.1492 1.83398 14.3212C0.662046 15.4931 0.00366261 17.0826 0.00366261 18.7399C0.00366261 20.3973 0.662046 21.9868 1.83398 23.1587C3.00591 24.3306 4.59539 24.989 6.25275 24.989C5.0168 24.9883 3.80838 25.3541 2.78033 26.0401C1.75227 26.7262 0.950735 27.7017 0.477088 28.8433C0.00344068 29.9849 -0.121048 31.2413 0.119364 32.4536C0.359776 33.666 0.954291 34.7798 1.82773 35.6543C2.70117 36.5287 3.8143 37.1246 5.02636 37.3664C6.23842 37.6082 7.49498 37.4852 8.63713 37.0129C9.77927 36.5406 10.7557 35.7402 11.443 34.7129C12.1302 33.6857 12.4974 32.4777 12.4982 31.2418V12.4982H18.7509ZM18.7509 12.4982C17.5157 12.4982 16.3082 12.8645 15.2811 13.5507C14.2541 14.237 13.4536 15.2124 12.9809 16.3536C12.5082 17.4948 12.3845 18.7505 12.6255 19.962C12.8665 21.1735 13.4613 22.2863 14.3347 23.1598C15.2082 24.0332 16.321 24.628 17.5325 24.869C18.744 25.11 19.9997 24.9863 21.1409 24.5136C22.2821 24.0409 23.2575 23.2404 23.9438 22.2134C24.6301 21.1863 24.9963 19.9788 24.9963 18.7436C24.9961 17.0873 24.3381 15.4988 23.1669 14.3276C21.9957 13.1564 20.4072 12.4984 18.7509 12.4982Z" fill="white"/>
</svg>
