<svg width="40" height="40" viewBox="0 0 40 40" fill="none" xmlns="http://www.w3.org/2000/svg">
<rect width="40" height="40" rx="2" fill="white"/>
<path d="M31.341 20.9409C32.2197 20.0623 32.2197 18.6377 31.341 17.759L23.841 10.259C22.9623 9.38033 21.5378 9.38028 20.659 10.259L8.659 22.259C7.78033 23.1376 7.78033 24.5623 8.659 25.4409L13.159 29.9409C13.581 30.3629 14.1533 30.5999 14.75 30.6H31.4375C31.7481 30.6 32 30.3481 32 30.0375V28.1625C32 27.8518 31.7481 27.6 31.4375 27.6H24.682L31.341 20.9409ZM17.1554 18.0053L23.5947 24.4447L20.4394 27.6H15.0607L11.3107 23.85L17.1554 18.0053Z" fill="black"/>
</svg>
